<svg width="20" height="17" viewBox="0 0 20 17" fill="none" xmlns="http://www.w3.org/2000/svg">
<path d="M19.0469 8.10013C18.3048 6.58074 17.4216 5.3416 16.3973 4.3827L15.3231 5.42654C16.1991 6.23998 16.9621 7.30412 17.6219 8.62943C15.8653 12.1622 13.3719 13.8404 9.96442 13.8404C8.9416 13.8404 7.9995 13.6873 7.13812 13.3813L5.97419 14.5123C7.17056 15.0491 8.50063 15.3175 9.96442 15.3175C14.0222 15.3175 17.0497 13.2639 19.0469 9.15668C19.1272 8.9915 19.1689 8.81109 19.1689 8.62841C19.1689 8.44572 19.1272 8.26531 19.0469 8.10013ZM17.7048 1.52201L16.8048 0.646402C16.7891 0.631142 16.7705 0.619037 16.75 0.610777C16.7295 0.602518 16.7075 0.598267 16.6853 0.598267C16.6631 0.598267 16.6411 0.602518 16.6206 0.610777C16.6001 0.619037 16.5815 0.631142 16.5658 0.646402L14.2568 2.88917C12.9837 2.25729 11.5529 1.94135 9.96442 1.94135C5.90664 1.94135 2.87913 3.99496 0.881908 8.10218C0.801629 8.26737 0.759995 8.44778 0.759995 8.63046C0.759995 8.81314 0.801629 8.99355 0.881908 9.15873C1.67981 10.7918 2.64042 12.1007 3.76374 13.0856L1.52963 15.256C1.49798 15.2867 1.4802 15.3285 1.4802 15.372C1.4802 15.4155 1.49798 15.4572 1.52963 15.488L2.43092 16.3638C2.46259 16.3946 2.50553 16.4118 2.55031 16.4118C2.59508 16.4118 2.63803 16.3946 2.6697 16.3638L17.7048 1.75424C17.7205 1.739 17.733 1.7209 17.7415 1.70098C17.75 1.68105 17.7544 1.65969 17.7544 1.63813C17.7544 1.61656 17.75 1.5952 17.7415 1.57528C17.733 1.55535 17.7205 1.53725 17.7048 1.52201ZM2.30699 8.62943C4.06564 5.09665 6.55901 3.41847 9.96442 3.41847C11.1159 3.41847 12.1628 3.6105 13.1127 4.00091L11.6285 5.44315C10.9256 5.07872 10.1208 4.94347 9.33275 5.05735C8.54473 5.17123 7.81524 5.52821 7.25189 6.07563C6.68855 6.62305 6.32119 7.33193 6.20399 8.09768C6.0868 8.86343 6.22599 9.6455 6.60102 10.3285L4.83983 12.0399C3.86508 11.2039 3.02481 10.0713 2.30699 8.62943ZM7.51539 8.62943C7.51576 8.26767 7.60394 7.91109 7.77277 7.58867C7.9416 7.26624 8.18632 6.98707 8.48705 6.77381C8.78777 6.56056 9.13602 6.41925 9.50351 6.36136C9.871 6.30346 10.2474 6.33062 10.602 6.44062L7.6275 9.33107C7.55294 9.10425 7.51512 8.86754 7.51539 8.62943Z" fill="white"/>
<path d="M9.87988 10.9271C9.80683 10.9271 9.73484 10.9238 9.66348 10.9174L8.54833 12.001C9.21905 12.2506 9.94981 12.3061 10.6523 12.1607C11.3547 12.0154 11.9988 11.6754 12.5067 11.1819C13.0146 10.6884 13.3644 10.0625 13.514 9.37987C13.6636 8.69726 13.6066 7.98715 13.3497 7.33539L12.2345 8.41902C12.2411 8.48837 12.2445 8.55832 12.2445 8.62931C12.2446 8.9311 12.1836 9.22996 12.0648 9.50881C11.946 9.78766 11.7719 10.041 11.5523 10.2544C11.3327 10.4678 11.0719 10.6371 10.785 10.7525C10.498 10.8679 10.1904 10.9272 9.87988 10.9271Z" fill="white"/>
</svg>
