<svg width="23" height="24" viewBox="0 0 23 24" fill="none" xmlns="http://www.w3.org/2000/svg">
<g id="person_24px">
<path id="icon/social/person_24px" fill-rule="evenodd" clip-rule="evenodd" d="M11.9642 4.59557C9.93007 4.59557 8.28247 6.2518 8.28247 8.29665C8.28247 10.3415 9.93007 11.9977 11.9642 11.9977C13.9984 11.9977 15.646 10.3415 15.646 8.29665C15.646 6.2518 13.9984 4.59557 11.9642 4.59557ZM13.8054 8.29664C13.8054 7.27884 12.977 6.4461 11.9646 6.4461C10.9521 6.4461 10.1237 7.27884 10.1237 8.29664C10.1237 9.31444 10.9521 10.1472 11.9646 10.1472C12.977 10.1472 13.8054 9.31444 13.8054 8.29664ZM17.487 17.5493C17.3029 16.8924 14.4496 15.6988 11.9644 15.6988C9.48837 15.6988 6.6534 16.8832 6.4417 17.5493H17.487ZM4.60091 17.5494C4.60091 15.0881 9.50687 13.8483 11.9645 13.8483C14.422 13.8483 19.328 15.0881 19.328 17.5494V19.3999H4.60091V17.5494Z" fill="white"/>
</g>
</svg>
